

<svg width="18" height="16" xmlns="http://www.w3.org/2000/svg">
<path d="M17.5 3H3.25L3.15.67A.75.75 0 0 0 2.26 0H.75a.75.75 0 1 0 0 1.5h.85l.85 9.5c.06 0.68.43 1.43 1.07 1.92C2.35 14.7 3.45 16 5.25 16c1.56 0 2.66-1.55 2.13-3H12.75c-.53 1.47.56 3 2.13 3a2.25 2.25 0 0 0 2.25-2.25 2.25 2.25 0 0 0-2.25-2.25H5.26c-.57 0-1.06-.34-1.27-.84l11.8.7a.75.75 0 0 0 .68-.57l1.5 -6A.75.75 0 0 0 18.25 7.75ZM5.25 14.55a.77.77 0 0 1 0-1.55.77.77 0 0 1 0 1.55Zm8.35 0a.77.77 0 0 1 0-1.55.77.77 0 0 1 0 1.55Zm1.68-5.98-11.4.67-.48-5.28h13.1l-1.15 4.6Z" fill="#ffffff" fill-rule="nonzero"/>
</svg>
